<?xml version="1.0" encoding="utf-8"?>
<!-- Generator: Adobe Illustrator 21.1.0, SVG Export Plug-In . SVG Version: 6.00 Build 0)  -->
<svg version="1.1" id="图层_1" xmlns="http://www.w3.org/2000/svg" xmlns:xlink="http://www.w3.org/1999/xlink" x="0px" y="0px"
	 viewBox="0 0 196 196" style="enable-background:new 0 0 196 196;" xml:space="preserve">
<style type="text/css">
	.st0{fill:#409EFF;}
</style>
<path class="st0" d="M110.4,173c-1.3,0-2.5-0.5-3.5-1.5l-68.8-70.1c-1.9-1.9-1.9-5,0-6.9l68.8-70.1c1.9-1.9,5-2,6.9-0.1
	c1.9,1.9,2,5,0.1,6.9L48.4,98l65.5,66.7c1.9,1.9,1.9,5-0.1,6.9C112.9,172.5,111.7,173,110.4,173L110.4,173z M110.4,173"/>
<path class="st0" d="M154.4,173c-1.3,0-2.5-0.5-3.5-1.5l-68.8-70.1c-1.9-1.9-1.9-5,0-6.9l68.8-70.1c1.9-1.9,5-2,6.9-0.1
	c1.9,1.9,2,5,0.1,6.9L92.4,98l65.5,66.7c1.9,1.9,1.9,5-0.1,6.9C156.9,172.5,155.7,173,154.4,173L154.4,173z M154.4,173"/>
</svg>
